<svg width="108" height="108" viewBox="0 0 108 108" fill="none" xmlns="http://www.w3.org/2000/svg">
<g clip-path="url(#clip0_11_2059)">
<rect width="108" height="108" rx="16" fill="white"/>
<rect width="162" height="162" transform="translate(-27 -27)" fill="#02569B"/>
<path d="M-13.0996 -27V135H-13.9004V-27H-13.0996Z" fill="white" fill-opacity="0.2"/>
<path d="M1.90039 -27V135H1.09961V-27H1.90039Z" fill="white" fill-opacity="0.2"/>
<path d="M16.9004 -27V135H16.0996V-27H16.9004Z" fill="white" fill-opacity="0.2"/>
<path d="M31.9004 -27V135H31.0996V-27H31.9004Z" fill="white" fill-opacity="0.2"/>
<path d="M46.9004 -27V135H46.0996V-27H46.9004Z" fill="white" fill-opacity="0.2"/>
<path d="M61.9004 -27V135H61.0996V-27H61.9004Z" fill="white" fill-opacity="0.2"/>
<path d="M76.9004 -27V135H76.0996V-27H76.9004Z" fill="white" fill-opacity="0.2"/>
<path d="M91.9004 -27V135H91.0996V-27H91.9004Z" fill="white" fill-opacity="0.2"/>
<path d="M106.9 -27V135H106.1V-27H106.9Z" fill="white" fill-opacity="0.2"/>
<path d="M121.9 -27V135H121.1V-27H121.9Z" fill="white" fill-opacity="0.2"/>
<path d="M135 -13.9004V-13.0996H-27V-13.9004H135Z" fill="white" fill-opacity="0.2"/>
<path d="M135 1.09961V1.90039H-27V1.09961H135Z" fill="white" fill-opacity="0.2"/>
<path d="M135 16.0996V16.9004H-27V16.0996H135Z" fill="white" fill-opacity="0.2"/>
<path d="M135 31.0996V31.9004H-27V31.0996H135Z" fill="white" fill-opacity="0.2"/>
<path d="M135 46.0996V46.9004H-27V46.0996H135Z" fill="white" fill-opacity="0.2"/>
<path d="M135 61.0996V61.9004H-27V61.0996H135Z" fill="white" fill-opacity="0.2"/>
<path d="M135 76.0996V76.9004H-27V76.0996H135Z" fill="white" fill-opacity="0.2"/>
<path d="M135 91.0996V91.9004H-27V91.0996H135Z" fill="white" fill-opacity="0.2"/>
<path d="M135 106.1V106.9H-27V106.1H135Z" fill="white" fill-opacity="0.2"/>
<path d="M135 121.1V121.9H-27V121.1H135Z" fill="white" fill-opacity="0.2"/>
<path d="M106.5 16.0996V16.9004H1.5V16.0996H106.5Z" fill="white" fill-opacity="0.2"/>
<path d="M106.5 31.0996V31.9004H1.5V31.0996H106.5Z" fill="white" fill-opacity="0.2"/>
<path d="M106.5 46.0996V46.9004H1.5V46.0996H106.5Z" fill="white" fill-opacity="0.2"/>
<path d="M106.5 61.0996V61.9004H1.5V61.0996H106.5Z" fill="white" fill-opacity="0.2"/>
<path d="M106.5 76.0996V76.9004H1.5V76.0996H106.5Z" fill="white" fill-opacity="0.2"/>
<path d="M106.5 91.0996V91.9004H1.5V91.0996H106.5Z" fill="white" fill-opacity="0.2"/>
<path d="M16.9004 1.5V106.5H16.0996V1.5H16.9004Z" fill="white" fill-opacity="0.2"/>
<path d="M31.9004 1.5V106.5H31.0996V1.5H31.9004Z" fill="white" fill-opacity="0.2"/>
<path d="M46.9004 1.5V106.5H46.0996V1.5H46.9004Z" fill="white" fill-opacity="0.2"/>
<path d="M61.9004 1.5V106.5H61.0996V1.5H61.9004Z" fill="white" fill-opacity="0.2"/>
<path d="M76.9004 1.5V106.5H76.0996V1.5H76.9004Z" fill="white" fill-opacity="0.2"/>
<path d="M91.9004 1.5V106.5H91.0996V1.5H91.9004Z" fill="white" fill-opacity="0.2"/>
<path d="M60.6796 20L26 54.5L36.6804 65.1375L81.9538 20.0374H60.7171L60.6796 20ZM60.72 51.832L42.0408 70.3988L60.7171 89H82L63.3526 70.4045L82 51.832H60.7258H60.72Z" fill="white"/>
</g>
<defs>
<clipPath id="clip0_11_2059">
<rect width="108" height="108" rx="16" fill="white"/>
</clipPath>
</defs>
</svg>
